PathFileType	4	(X/Y/Z)	c:/Users/goper/Files/vsCode/490R/osim_files/A02/A02_PWS_04.trc
DataRate	CameraRate	NumFrames	NumMarkers	Units                	OrigDataRate	OrigDataStartFrame	OrigNumFrames
250.00	250.00	4	36	mm	250.0	1630	3258
                Frame#	Time	Mobility_markerset:LPSIS			Mobility_markerset:LASIS			Mobility_markerset:LTH1			Mobility_markerset:LTH2			Mobility_markerset:LTH3			Mobility_markerset:LTH4			Mobility_markerset:LLFE			Mobility_markerset:LMFE			Mobility_markerset:LSH1			Mobility_markerset:LSH2			Mobility_markerset:LSH3			Mobility_markerset:LSH4			Mobility_markerset:LLMAL			Mobility_markerset:LMMAL			Mobility_markerset:LCAL			Mobility_markerset:LMTP5			Mobility_markerset:LTOE			Mobility_markerset:LMTP1			Mobility_markerset:RPSIS			Mobility_markerset:RASIS			Mobility_markerset:RTH1			Mobility_markerset:RTH2			Mobility_markerset:RTH3			Mobility_markerset:RTH4			Mobility_markerset:RLFE			Mobility_markerset:RMFE			Mobility_markerset:RSH1			Mobility_markerset:RSH2			Mobility_markerset:RSH3			Mobility_markerset:RSH4			Mobility_markerset:RLMAL			Mobility_markerset:RMMAL			Mobility_markerset:RCAL			Mobility_markerset:RMTP1			Mobility_markerset:RTOE			Mobility_markerset:RMTP5		
		X1	Y1	Z1	X2	Y2	Z2	X3	Y3	Z3	X4	Y4	Z4	X5	Y5	Z5	X6	Y6	Z6	X7	Y7	Z7	X8	Y8	Z8	X9	Y9	Z9	X10	Y10	Z10	X11	Y11	Z11	X12	Y12	Z12	X13	Y13	Z13	X14	Y14	Z14	X15	Y15	Z15	X16	Y16	Z16	X17	Y17	Z17	X18	Y18	Z18	X19	Y19	Z19	X20	Y20	Z20	X21	Y21	Z21	X22	Y22	Z22	X23	Y23	Z23	X24	Y24	Z24	X25	Y25	Z25	X26	Y26	Z26	X27	Y27	Z27	X28	Y28	Z28	X29	Y29	Z29	X30	Y30	Z30	X31	Y31	Z31	X32	Y32	Z32	X33	Y33	Z33	X34	Y34	Z34	X35	Y35	Z35	X36	Y36	Z36

1630	6.51600	-451.59464	952.54236	281.21387	-589.63165	912.63263	369.14853	-483.75485	659.24652	394.98932	-493.47110	612.35535	394.00610	-540.07745	665.17877	419.34357	-541.40900	619.67456	413.02249	0.00000	0.00000	0.00000	-581.29626	389.61386	297.12122	-444.47015	441.27728	368.28091	-408.53824	414.49725	371.78882	-477.10135	391.93738	382.45901	-437.45096	370.79486	384.20303	-237.16090	230.04391	332.86664	-254.32350	230.73203	252.40916	-196.87645	285.67532	294.36832	-214.09613	113.06793	324.77499	-261.02576	90.02609	258.14502	-227.17586	121.65829	213.43079	-464.27585	968.22723	180.88554	0.00000	0.00000	0.00000	-612.64606	616.81000	103.31982	-625.53802	574.73761	104.23186	-673.68939	628.64020	102.54980	-676.69891	585.40930	102.65814	-659.92493	466.39688	94.77845	-682.18530	472.47113	227.16090	-673.33563	281.34967	117.17725	-684.22876	236.87845	127.44508	-732.24451	290.15637	112.82581	-735.56091	243.42496	120.38881	-707.77313	82.62955	126.41833	-721.23755	89.65286	213.69247	-659.88019	63.94051	173.63480	-847.96783	64.50842	202.97182	-867.44989	77.41470	166.74373	-836.95056	58.66699	111.23940
1631	6.52000	-456.36658	953.69061	281.22424	-594.34985	913.93042	369.12070	-490.91174	659.55994	395.41077	-501.62341	613.60950	394.96570	-547.37299	666.17590	419.57358	-549.23358	620.78943	413.36993	0.00000	0.00000	0.00000	-591.70209	390.83481	297.52927	-454.75137	442.16968	369.28171	-419.36853	415.16147	372.93063	-488.07355	392.56213	382.80606	-448.36948	371.38095	384.72293	-247.37590	230.65738	333.62393	-264.40799	232.23982	253.22916	-206.07591	285.98059	295.81909	-225.95233	113.45390	324.74103	-273.18814	91.65775	257.77536	-238.88206	123.18960	213.61034	-469.15030	969.21490	180.82782	0.00000	0.00000	0.00000	-616.14563	617.59106	103.40945	-628.84314	575.47974	104.31429	-677.39789	629.15253	102.60033	-680.44843	585.83917	102.67442	-662.55255	466.95432	94.86245	-684.81433	472.85150	227.24878	-674.88928	281.81586	117.29865	-685.57269	237.20471	127.54428	-733.88269	290.22842	112.88442	-736.84125	243.52054	120.48900	-708.01471	82.77254	126.47301	-721.42749	89.70737	213.65083	-660.01404	64.12070	173.64301	-848.13892	64.19991	203.04054	-867.70660	76.99500	166.80275	-837.12860	58.39524	111.29663
1632	6.52400	-461.10306	954.79028	281.24396	-599.06274	915.04382	369.02567	-498.20508	659.90186	395.80777	-509.04428	613.40460	394.69022	-554.47131	667.34259	419.79691	-557.04163	621.81891	413.54794	0.00000	0.00000	0.00000	-601.86926	392.04147	297.83197	-465.61850	442.75165	370.38123	-430.14026	415.80283	374.10675	-498.90918	393.22256	383.11368	-459.37814	371.85992	385.18918	-257.72629	231.07683	334.42868	-274.67505	233.40520	253.95886	-215.35292	286.10864	297.11453	-237.95973	113.58663	324.78662	-285.67633	93.11559	257.68634	-250.86314	124.38194	213.68610	-473.95834	970.30353	180.89403	0.00000	0.00000	0.00000	-619.70300	618.36713	103.50391	-632.10699	576.16687	104.39825	0.00000	0.00000	0.00000	-683.63733	586.19208	102.74632	-665.25446	467.43207	94.91815	-687.56781	473.27081	227.29857	-676.38177	282.26779	117.29564	-686.29279	237.99734	127.38325	-735.44696	290.34995	112.95444	-738.15289	243.57323	120.54086	-708.25598	82.93845	126.58942	-721.70203	89.75272	213.66336	-660.14435	64.28551	173.68935	-848.39386	63.77501	203.07214	-867.97314	76.58320	166.89661	-837.34308	58.10978	111.36797
1633	6.52800	-465.99121	955.89471	281.27963	-603.96967	916.23401	368.87396	-505.43338	660.27502	396.10129	-516.95801	613.86731	395.12122	-561.72974	668.41431	419.92773	-564.83832	623.00861	413.71078	0.00000	0.00000	0.00000	-612.31201	393.23798	298.25943	-476.28714	443.53842	371.35724	-440.93741	416.26724	375.25623	-509.93076	393.83020	383.15848	-470.30829	372.39224	385.60239	-268.30460	231.20218	335.09280	-285.20859	234.28265	254.67758	-224.88220	285.89468	298.26099	-250.22865	113.59052	324.83389	-298.42361	94.43501	257.82321	-263.16675	125.33436	213.89230	-478.81754	971.32147	180.86954	0.00000	0.00000	0.00000	-623.14801	619.13287	103.59648	-635.34619	576.85699	104.52981	-684.36719	629.90912	102.94484	-687.56158	586.80249	102.23626	-667.94000	467.94595	94.99408	-690.30939	473.64771	227.46808	-677.96387	282.70801	117.36716	-687.44196	238.39789	127.45922	-737.04260	290.45422	113.06445	-739.43652	243.64763	120.55473	-708.54474	83.06003	126.70447	-721.96832	89.85580	213.64108	-659.84912	64.69118	173.62514	-848.66925	63.51986	203.32442	-868.22168	76.15601	166.93303	-837.54187	57.83747	111.40506
